<svg width="92" height="50" viewBox="0 0 92 50" fill="none" xmlns="http://www.w3.org/2000/svg">
<g clip-path="url(#clip0_3392:32106)">
<path d="M50.6658 28.6529H48.0514V38.4514H44.3858V28.6529H42.5V25.5117H44.3858V24.2926C44.3858 21.1225 46.3534 19.5 49.345 19.5C49.8075 19.5037 50.2682 19.5583 50.7189 19.6628V23.3445C50.3246 23.1863 49.9043 23.1037 49.4798 23.1009C48.5634 23.1009 48.0457 23.6975 48.0457 24.5419V25.5174H50.6601L50.6658 28.6529ZM56.1642 38.4514H52.4713V19.7666H56.1627L56.1642 38.4514Z" fill="white"/>
<path d="M64.3557 24.699C68.2908 24.699 71.3369 27.7596 71.3369 31.7122C71.3369 35.6647 68.2908 38.7527 64.3557 38.7527C60.4205 38.7527 57.3759 35.6661 57.3759 31.7122C57.3759 27.7582 60.4219 24.699 64.3557 24.699ZM64.3557 35.1517C66.2429 35.1517 67.591 33.5811 67.591 31.7122C67.591 29.8432 66.2429 28.3 64.3557 28.3C62.4913 28.3 61.0959 29.8447 61.0959 31.7122C61.0959 33.5796 62.4971 35.1517 64.3557 35.1517Z" fill="white"/>
<path d="M75.1904 24.9699L77.5624 33.9326L79.9344 26.8114L79.2877 24.9699H82.926L86.0523 33.9326L88.3699 24.9699H92.1702L88.1805 38.4558H84.3544L81.6898 31.0623L79.2059 38.4558H75.3525L71.3915 24.9699H75.1904Z" fill="white"/>
<path d="M48.6045 11.1052C48.6045 12.026 47.8559 12.5087 46.6541 12.5087H43V7.38757H46.4419C47.5633 7.38757 48.3062 7.84868 48.3062 8.68443C48.3062 9.26946 47.9505 9.79685 47.2005 9.84728C48.0007 9.90348 48.6045 10.268 48.6045 11.1052ZM43.859 9.54468H46.3056C46.9897 9.54468 47.4529 9.3905 47.4529 8.82421C47.4529 8.25791 46.9954 8.11382 46.3056 8.11382H43.859V9.54468ZM47.7096 11.0145C47.7096 10.4381 47.2507 10.2536 46.4863 10.2536H43.859V11.7753H46.4863C47.2507 11.7753 47.7096 11.5923 47.7096 11.0145Z" fill="white"/>
<path d="M54.1129 8.49854V12.5058H53.2624V11.7306C52.9125 12.307 52.2586 12.6528 51.4426 12.6528C50.2264 12.6528 49.6227 11.8704 49.6227 10.7882V8.49854H50.4674V10.7291C50.4674 11.5188 50.8675 11.9439 51.6605 11.9439C51.9931 11.9526 52.321 11.8648 52.6051 11.691C52.8893 11.5172 53.1175 11.2648 53.2624 10.964V8.49854H54.1129Z" fill="white"/>
<path d="M55.3134 7.47551C55.3134 7.19741 55.5471 7 55.8598 7C56.1724 7 56.3976 7.19741 56.3976 7.47551C56.3943 7.54256 56.3777 7.60827 56.3487 7.66875C56.3197 7.72923 56.2789 7.78324 56.2288 7.82758C56.1786 7.87193 56.1201 7.90571 56.0567 7.92691C55.9933 7.94812 55.9264 7.95632 55.8598 7.95103C55.7927 7.95633 55.7253 7.94818 55.6614 7.92708C55.5975 7.90597 55.5384 7.87232 55.4876 7.82808C55.4368 7.78384 55.3952 7.72989 55.3653 7.66936C55.3354 7.60884 55.3177 7.54295 55.3134 7.47551ZM56.2886 12.5059H55.4453V8.49859H56.2886V12.5059Z" fill="white"/>
<path d="M57.6278 12.5059V7.09515H58.4725V12.5059H57.6278Z" fill="white"/>
<path d="M62.693 12.2797C62.327 12.5202 61.8999 12.6497 61.4626 12.6529C60.6838 12.6529 60.0657 12.2365 60.0657 11.4022V9.17878H59.2942V8.49865H60.0657V7.57068H60.9176V8.49865H62.6557V9.17878H60.9176V11.2638C60.9176 11.7091 61.2589 11.9281 61.6734 11.9281C61.9539 11.9175 62.227 11.8347 62.4664 11.6875L62.693 12.2797Z" fill="white"/>
<path d="M65.3262 10.5101C65.3262 9.17868 66.2655 8.34869 67.8086 8.34869C69.3517 8.34869 70.291 9.18157 70.291 10.5101C70.291 11.8387 69.3589 12.66 67.8086 12.66C66.2583 12.66 65.3262 11.8329 65.3262 10.5101ZM69.4607 10.5101C69.4607 9.53748 68.7551 9.06197 67.8086 9.06197C66.8621 9.06197 66.1637 9.53748 66.1637 10.5101C66.1637 11.4828 66.8693 11.9439 67.8086 11.9439C68.7479 11.9439 69.4607 11.4684 69.4607 10.5101V10.5101Z" fill="white"/>
<path d="M71.3236 12.5059V8.49856H72.174V9.2738C72.524 8.69742 73.1779 8.35303 73.9939 8.35303C75.21 8.35303 75.8138 9.13547 75.8138 10.2176V12.5059H74.9691V10.2767C74.9691 9.48562 74.569 9.06198 73.7759 9.06198C73.4432 9.05215 73.1148 9.13948 72.8305 9.31339C72.5462 9.48731 72.3181 9.74034 72.174 10.0418V12.5059H71.3236Z" fill="white"/>
<path d="M18 43C27.9411 43 36 34.9411 36 25C36 15.0589 27.9411 7 18 7C8.05887 7 0 15.0589 0 25C0 34.9411 8.05887 43 18 43Z" fill="#28F885"/>
<path d="M25.8985 22.1846H20.8169V27.2676H25.8985V22.1846Z" fill="white"/>
<path d="M15.7338 29.1723C15.7338 29.5493 15.622 29.9178 15.4126 30.2313C15.2031 30.5448 14.9054 30.7891 14.5571 30.9333C14.2088 31.0776 13.8256 31.1154 13.4558 31.0418C13.0861 30.9683 12.7464 30.7867 12.4799 30.5201C12.2133 30.2536 12.0317 29.9139 11.9582 29.5442C11.8846 29.1744 11.9224 28.7912 12.0667 28.4429C12.2109 28.0946 12.4552 27.7969 12.7687 27.5874C13.0822 27.378 13.4507 27.2662 13.8277 27.2662H15.7338V22.1846H13.8277C12.4457 22.1846 11.0947 22.5944 9.94552 23.3622C8.7964 24.13 7.90076 25.2214 7.37188 26.4982C6.84299 27.7751 6.70461 29.1801 6.97424 30.5355C7.24386 31.891 7.90938 33.1361 8.88663 34.1134C9.86388 35.0906 11.109 35.7561 12.4645 36.0258C13.8199 36.2954 15.2249 36.157 16.5018 35.6281C17.7786 35.0992 18.87 34.2036 19.6378 33.0545C20.4056 31.9053 20.8154 30.5543 20.8154 29.1723V27.2662H15.7338V29.1723Z" fill="white"/>
<path d="M22.7216 19.6402H28.44V14.56H22.7216C20.8688 14.5623 19.0926 15.2994 17.7826 16.6097C16.4726 17.9199 15.7358 19.6963 15.7339 21.5492V22.1845H20.8155V21.5492C20.8155 21.0434 21.0162 20.5582 21.3736 20.2003C21.731 19.8424 22.2158 19.6409 22.7216 19.6402V19.6402Z" fill="white"/>
<path d="M15.7339 27.2662H20.8155H20.8169V22.1846H20.8155H15.7339V27.2662Z" fill="#28F885"/>
</g>
<defs>
<clipPath id="clip0_3392:32106">
<rect width="92" height="50" fill="white"/>
</clipPath>
</defs>
</svg>
